<?xml version="1.0" encoding="UTF-8" ?>
<!DOCTYPE svg PUBLIC "-//W3C//DTD SVG 1.1//EN" "http://www.w3.org/Graphics/SVG/1.1/DTD/svg11.dtd">
<svg width="1024pt" height="1024pt" viewBox="0 0 1024 1024" version="1.1" xmlns="http://www.w3.org/2000/svg">
<g id="#007aacff">
<path fill="#000" opacity="1.00" d=" M 401.92 4.42 C 403.51 4.38 405.11 4.35 406.71 4.28 C 406.51 47.73 406.53 91.18 406.70 134.62 C 401.98 134.84 397.99 138.35 393.09 137.61 L 393.94 138.96 C 392.99 138.79 391.10 138.45 390.15 138.28 L 390.96 139.91 C 390.00 139.76 388.09 139.45 387.14 139.30 L 387.99 140.87 C 387.04 140.73 385.12 140.46 384.16 140.33 L 384.97 141.63 C 382.99 141.86 381.04 142.25 379.09 142.63 L 380.03 143.54 C 378.02 143.79 376.05 144.24 374.08 144.66 L 374.98 145.92 C 374.03 145.76 372.11 145.44 371.16 145.28 L 372.00 146.60 C 370.03 146.89 368.07 147.27 366.12 147.65 L 367.00 148.65 C 365.02 148.85 363.06 149.23 361.11 149.59 L 362.01 150.70 C 358.83 150.16 356.55 152.80 353.68 153.56 C 348.57 154.98 344.47 159.12 339.11 159.66 L 340.01 160.62 C 338.02 160.26 334.75 163.38 334.55 159.42 C 335.87 162.54 333.50 164.17 330.95 163.70 C 330.64 164.11 330.00 164.92 329.68 165.33 C 326.46 166.85 323.40 168.76 319.96 169.74 C 318.41 172.18 315.51 172.99 312.90 173.74 C 312.21 175.07 310.93 175.85 309.66 176.56 C 308.42 177.05 307.13 177.38 305.84 177.68 C 305.22 178.56 304.62 179.45 304.03 180.36 L 302.73 177.07 C 303.53 179.32 302.35 182.06 299.84 181.73 C 299.23 182.60 298.62 183.46 298.02 184.33 L 296.66 181.09 C 296.54 182.22 296.28 184.48 296.16 185.61 C 294.72 186.07 293.24 186.32 291.77 186.62 C 291.27 188.45 289.75 189.70 287.84 189.73 C 287.22 190.59 286.62 191.46 286.03 192.34 L 284.71 189.12 C 284.87 191.12 284.32 192.87 283.07 194.38 L 281.69 191.09 C 282.43 194.05 280.84 196.73 277.85 196.74 C 277.06 198.32 275.83 199.76 273.91 199.74 C 272.99 201.34 271.75 202.74 269.77 202.76 C 269.22 204.65 267.73 205.62 265.81 205.72 C 264.81 207.75 263.21 209.51 260.85 209.78 C 259.18 212.11 257.27 214.34 254.84 215.90 L 253.59 213.24 C 254.05 217.72 249.63 221.30 245.88 222.81 C 242.04 227.65 237.17 231.55 233.05 236.15 C 231.56 237.79 229.62 239.45 227.10 238.67 L 230.39 240.10 C 229.07 241.14 227.57 241.65 225.89 241.63 C 229.21 241.93 227.14 244.05 226.23 245.07 C 222.69 248.11 219.96 252.81 214.13 250.97 C 217.90 249.27 221.40 251.68 220.67 255.08 C 222.45 256.07 223.76 257.62 224.47 259.53 C 224.83 261.07 225.19 262.61 225.69 264.12 C 227.69 265.00 228.63 266.97 228.65 269.07 C 231.04 270.10 231.13 272.90 231.66 275.10 C 233.55 275.64 233.76 277.30 233.72 279.02 C 236.97 281.73 238.19 286.25 239.74 290.07 C 241.57 290.70 241.73 292.34 241.73 294.04 C 244.04 295.36 244.61 298.15 245.75 300.37 C 247.07 302.64 248.01 305.13 249.39 307.38 C 250.41 308.88 251.89 311.26 248.34 311.43 C 249.26 311.55 251.11 311.79 252.04 311.91 C 253.00 315.06 254.90 317.85 255.71 321.05 C 258.05 322.35 258.53 325.19 259.80 327.33 C 261.99 332.30 265.08 336.87 266.76 342.04 C 269.96 344.79 271.15 349.26 272.77 353.06 C 274.78 354.25 275.38 356.61 276.49 358.52 C 277.09 359.90 278.96 362.31 275.57 362.48 C 278.63 361.15 280.13 363.57 279.71 366.03 C 282.60 368.09 283.52 371.87 284.76 375.03 C 286.83 376.47 287.80 378.82 288.73 381.07 C 288.12 381.42 286.90 382.13 286.29 382.49 C 289.43 380.97 291.21 383.49 290.70 386.05 C 293.99 388.68 295.17 393.27 296.73 397.07 C 299.06 398.11 299.03 400.97 299.68 403.08 C 303.03 405.67 304.10 410.30 305.75 414.07 C 308.21 415.53 308.69 418.60 310.08 420.90 C 311.86 425.00 314.52 428.72 315.74 433.06 C 318.66 435.11 319.50 438.94 320.75 442.09 C 323.08 443.12 323.04 445.97 323.67 448.09 C 326.26 449.43 326.61 452.67 328.14 454.91 C 329.91 457.52 329.60 460.78 329.81 463.78 C 330.13 462.67 330.78 460.45 331.11 459.33 C 332.14 463.13 334.85 466.20 335.72 470.05 C 338.98 472.74 340.16 477.25 341.75 481.04 C 343.33 481.96 344.11 483.66 344.80 485.28 C 346.06 488.24 347.99 490.89 348.75 494.06 C 350.78 495.21 351.46 497.53 352.38 499.53 C 353.38 501.27 354.27 503.10 354.71 505.09 C 357.08 506.13 357.09 508.97 357.66 511.14 C 359.74 511.93 360.58 514.01 360.65 516.10 C 362.57 516.62 362.76 518.30 362.70 520.02 C 364.77 521.47 365.80 523.85 366.76 526.10 C 366.18 526.44 365.02 527.11 364.45 527.45 C 369.86 525.89 368.68 532.81 371.44 535.35 C 372.03 536.52 372.33 537.80 372.73 539.05 C 374.37 539.93 375.02 541.68 375.83 543.25 C 377.30 546.92 379.68 550.19 380.76 554.04 C 381.13 554.35 381.85 554.98 382.21 555.29 C 383.00 558.37 385.00 560.96 385.73 564.06 C 387.35 564.95 388.10 566.65 388.80 568.27 C 390.06 571.23 392.01 573.89 392.72 577.08 C 395.97 579.71 397.16 584.26 398.75 588.03 C 401.13 589.61 402.08 592.45 402.71 595.10 C 404.98 596.13 405.75 598.44 405.54 600.81 L 406.64 600.10 C 406.73 601.80 407.15 603.47 407.67 605.09 C 411.01 607.67 412.18 612.27 413.74 616.07 C 415.62 616.66 415.70 618.41 415.69 620.10 C 417.76 620.91 418.52 623.01 418.66 625.07 C 421.05 626.12 421.16 628.96 421.64 631.19 C 422.53 631.79 423.44 632.38 424.36 632.96 L 421.12 634.20 C 423.90 633.33 426.41 635.12 425.66 637.90 L 426.91 637.01 C 426.79 637.76 426.55 639.25 426.42 640.00 C 429.65 641.78 430.49 645.88 431.73 649.08 C 433.56 649.67 433.73 651.32 433.73 653.00 C 436.39 654.67 436.80 658.06 438.42 660.54 C 439.57 663.02 441.08 665.34 441.76 668.03 C 444.10 669.62 445.10 672.43 445.70 675.08 C 448.06 676.11 448.05 678.93 448.70 681.07 C 451.61 683.09 452.57 686.88 453.74 690.07 C 455.64 690.68 455.72 692.41 455.66 694.14 C 458.09 694.93 458.73 697.62 458.55 699.91 L 459.90 699.01 C 459.77 699.78 459.51 701.33 459.38 702.10 C 462.61 702.92 463.04 706.36 463.69 709.09 C 466.62 711.07 467.57 714.88 468.74 718.05 C 471.95 720.76 473.15 725.24 474.77 729.03 C 477.56 731.17 478.58 734.85 479.74 738.04 C 481.86 739.42 482.80 741.83 483.71 744.08 C 483.11 744.44 481.91 745.14 481.31 745.50 C 485.72 743.59 486.01 748.46 486.66 751.14 C 488.72 751.92 489.59 754.01 489.65 756.10 C 491.58 756.62 491.74 758.31 491.71 760.04 C 494.62 762.07 495.53 765.88 496.76 769.05 C 499.94 771.78 501.19 776.25 502.74 780.06 C 504.30 780.69 504.79 782.06 504.75 783.68 L 506.68 783.42 C 505.77 783.91 503.94 784.87 503.02 785.36 C 504.37 785.41 507.06 785.53 508.40 785.58 C 509.66 783.12 509.70 779.67 512.24 778.04 C 513.28 774.18 515.72 770.94 517.17 767.25 C 517.97 765.69 518.63 763.95 520.23 763.04 C 521.59 759.88 522.29 755.75 525.57 754.00 C 525.46 753.26 525.22 751.79 525.11 751.05 L 526.45 751.87 C 526.77 748.28 528.39 744.34 531.27 742.08 C 531.77 740.47 532.12 738.81 532.84 737.29 C 533.18 738.53 533.86 741.01 534.21 742.25 C 534.81 738.80 533.19 729.64 539.85 731.34 L 536.66 729.96 C 537.56 729.37 538.46 728.77 539.35 728.17 C 539.54 725.73 540.98 723.74 542.14 721.70 C 542.20 719.19 543.74 717.02 546.91 718.29 L 543.64 716.95 C 544.62 716.31 545.60 715.69 546.60 715.09 C 546.48 714.32 546.22 712.77 546.09 712.00 L 547.31 712.89 C 547.17 711.22 547.60 709.80 549.14 709.02 C 549.48 707.67 550.00 706.31 551.60 706.02 C 551.47 705.27 551.20 703.78 551.07 703.04 L 552.35 703.88 C 552.16 702.17 552.56 700.71 554.25 700.06 C 555.09 696.61 557.28 693.75 558.54 690.47 C 559.12 689.01 560.00 687.67 561.49 687.01 C 561.46 686.45 561.39 685.33 561.35 684.77 C 562.74 682.38 564.05 679.95 564.94 677.33 C 565.25 678.63 565.88 681.23 566.19 682.53 C 566.04 678.55 566.06 674.10 569.34 671.32 C 668.33 671.61 767.32 671.18 866.31 671.53 C 867.11 668.58 869.79 666.25 869.33 662.99 L 870.40 663.90 C 870.02 660.14 873.84 657.75 873.38 653.98 L 874.37 654.90 C 874.37 650.98 877.80 648.00 877.32 643.98 L 878.45 644.91 C 878.47 641.70 880.11 638.87 880.93 635.84 C 882.12 633.71 883.56 631.56 883.38 628.99 L 884.70 629.83 C 884.54 628.88 884.22 626.98 884.06 626.03 L 885.30 626.92 C 885.65 624.25 886.18 621.62 886.45 618.95 L 887.35 619.92 C 887.57 617.62 887.99 615.36 888.39 613.09 L 889.65 613.74 C 889.49 612.18 889.34 610.62 889.20 609.07 L 891.91 610.06 C 890.44 608.76 889.44 607.25 888.87 605.43 C 890.91 605.38 894.98 605.28 897.02 605.23 C 893.95 605.47 891.41 604.59 889.42 602.59 C 891.48 602.50 895.60 602.31 897.66 602.22 C 892.92 603.23 890.94 601.03 891.14 597.36 C 893.05 597.34 896.86 597.28 898.76 597.26 C 895.32 597.14 892.08 597.01 892.00 593.39 C 893.91 593.36 897.74 593.29 899.66 593.25 C 896.24 593.23 893.09 592.95 893.00 589.40 C 894.98 589.36 898.92 589.29 900.89 589.25 C 897.42 589.11 894.09 589.07 894.00 585.40 C 895.93 585.36 899.81 585.29 901.74 585.25 C 900.19 584.92 897.09 584.27 895.54 583.94 C 895.38 582.40 895.22 580.88 895.23 579.35 C 897.07 579.33 900.75 579.29 902.59 579.27 C 901.09 578.96 898.09 578.33 896.59 578.02 C 896.40 576.80 896.25 575.58 896.14 574.37 C 898.04 574.34 901.84 574.29 903.74 574.26 C 902.20 573.95 899.12 573.32 897.58 573.00 C 897.39 571.79 897.25 570.58 897.14 569.37 C 899.06 569.34 902.90 569.28 904.82 569.25 C 903.24 568.91 900.08 568.23 898.50 567.89 C 898.29 565.71 898.33 563.53 898.29 561.35 C 900.13 561.33 903.79 561.29 905.62 561.27 C 904.10 560.94 901.04 560.28 899.52 559.96 C 899.32 558.09 899.32 556.22 899.26 554.35 C 901.12 554.33 904.83 554.29 906.69 554.27 C 905.15 553.95 902.08 553.30 900.55 552.98 C 900.02 550.35 900.16 547.56 901.28 545.10 C 901.45 542.38 901.41 539.66 901.26 536.95 L 902.51 537.93 C 902.37 517.34 902.27 496.74 902.56 476.16 L 901.28 476.96 C 901.37 474.32 901.23 471.68 901.52 469.06 C 903.06 468.73 906.14 468.07 907.68 467.74 C 905.83 467.72 902.14 467.67 900.29 467.65 C 900.36 465.42 900.28 463.18 900.52 460.97 C 902.05 460.66 905.11 460.04 906.63 459.74 C 904.78 459.71 901.08 459.67 899.23 459.65 C 899.23 458.07 899.38 456.51 899.56 454.95 C 901.08 454.65 904.12 454.04 905.63 453.74 C 903.80 453.72 900.13 453.67 898.30 453.65 C 898.37 451.14 898.28 448.62 898.49 446.12 C 900.08 445.78 903.27 445.09 904.86 444.75 C 902.93 444.72 899.08 444.66 897.15 444.63 C 897.24 443.42 897.39 442.23 897.57 441.04 C 899.13 440.72 902.24 440.07 903.80 439.75 C 901.89 439.72 898.06 439.65 896.14 439.62 C 896.25 438.40 896.40 437.19 896.58 435.99 C 898.11 435.68 901.18 435.05 902.71 434.74 C 900.84 434.71 897.10 434.67 895.23 434.65 C 895.24 433.09 895.37 431.54 895.54 430.00 C 897.09 429.68 900.19 429.06 901.73 428.75 C 899.80 428.71 895.93 428.63 894.00 428.60 C 894.09 425.03 897.37 424.65 900.85 424.75 C 898.89 424.71 894.96 424.64 893.00 424.60 C 893.08 421.06 896.33 420.65 899.77 420.75 C 897.83 420.71 893.95 420.64 892.00 420.60 C 892.07 417.02 895.39 416.68 898.85 416.74 C 896.92 416.72 893.07 416.67 891.14 416.64 C 890.93 412.96 892.99 410.61 897.79 411.79 C 895.70 411.70 891.51 411.50 889.42 411.41 C 891.37 409.43 893.84 408.55 896.83 408.76 C 894.85 408.72 890.88 408.64 888.90 408.60 C 889.33 407.59 889.76 406.59 890.20 405.59 C 889.18 403.95 889.46 401.99 889.46 400.17 L 888.39 400.95 C 887.97 398.66 887.55 396.38 887.35 394.07 L 886.12 395.01 C 886.24 394.23 886.47 392.67 886.59 391.89 C 885.14 390.31 884.24 388.27 884.42 386.10 L 883.40 387.02 C 883.23 383.61 881.56 380.49 881.42 377.07 L 880.09 377.98 C 880.24 377.02 880.54 375.10 880.69 374.14 L 879.34 375.02 C 879.18 373.05 878.78 371.11 878.41 369.18 L 877.35 369.94 C 877.16 367.97 876.76 366.03 876.40 364.10 L 875.43 365.01 C 875.87 362.82 871.91 359.49 876.84 359.45 L 870.15 359.65 L 872.97 360.61 C 871.95 362.13 871.49 363.84 871.57 365.68 C 871.15 363.84 870.30 360.15 869.87 358.31 C 869.79 362.95 868.73 369.25 864.43 372.01 C 864.55 372.75 864.79 374.24 864.90 374.98 L 863.69 374.12 C 863.85 375.84 863.41 377.29 861.69 377.92 C 860.99 380.02 861.03 382.79 858.83 383.98 C 858.66 385.31 857.99 386.37 856.73 386.94 C 855.58 390.12 854.60 393.88 851.72 395.93 C 850.54 398.10 850.16 400.68 852.38 402.41 C 851.84 402.06 850.77 401.36 850.23 401.01 C 847.37 402.90 847.90 407.36 844.68 408.92 C 844.11 411.11 843.99 413.83 841.71 414.99 C 842.25 417.69 840.21 419.87 837.12 418.67 L 840.33 420.02 C 839.45 420.62 838.58 421.22 837.71 421.82 C 837.12 424.82 835.32 427.34 834.10 430.09 C 833.24 431.84 832.61 433.93 830.76 434.91 C 829.48 438.05 828.67 441.94 825.71 443.96 C 825.73 445.65 825.59 447.34 823.70 447.90 C 823.38 449.62 822.62 451.21 821.76 452.72 C 820.65 454.43 820.87 457.02 818.73 457.94 C 817.99 460.52 817.18 463.44 814.74 464.95 C 813.54 468.11 812.64 471.93 809.69 473.92 C 809.07 476.06 809.07 478.87 806.72 479.92 C 805.65 483.14 804.54 486.80 801.76 488.97 C 800.41 491.57 800.45 495.31 797.68 496.91 C 797.04 499.54 796.65 504.41 792.32 502.46 L 794.55 503.73 C 794.05 506.02 792.82 508.59 790.73 509.94 C 790.03 512.55 789.15 515.43 786.73 516.95 C 786.28 518.17 786.09 519.49 785.42 520.63 C 783.54 522.99 783.50 526.94 780.24 527.98 C 780.48 528.43 780.95 529.31 781.19 529.75 L 779.73 529.27 C 779.39 532.77 777.11 535.54 775.82 538.70 C 775.10 540.31 774.34 542.02 772.75 542.95 C 771.19 546.76 769.93 551.21 766.75 553.96 C 765.94 557.45 763.56 560.26 762.49 563.64 L 757.70 563.56 C 759.21 564.14 762.23 565.28 763.74 565.85 C 762.96 565.73 761.40 565.49 760.62 565.36 C 761.22 568.19 759.81 571.08 756.10 569.68 L 759.36 571.05 C 758.37 571.68 757.39 572.30 756.40 572.91 C 756.53 573.68 756.78 575.22 756.90 575.99 L 755.70 575.12 C 755.80 576.77 755.42 578.30 753.75 578.94 C 752.17 582.74 750.99 587.27 747.71 589.97 C 748.23 592.67 746.25 594.90 743.12 593.66 L 746.35 595.03 C 745.45 595.64 744.55 596.25 743.66 596.86 C 743.76 598.65 743.61 600.49 741.50 600.97 C 741.53 601.56 741.58 602.73 741.61 603.32 C 739.81 605.75 739.47 609.29 736.72 610.92 C 736.03 613.18 735.42 615.68 733.66 617.37 C 731.16 617.95 728.56 617.51 726.04 617.60 C 683.03 617.59 640.02 617.60 597.01 617.59 L 596.94 616.29 C 597.33 616.40 598.09 616.63 598.48 616.74 C 598.21 614.43 599.05 612.08 601.27 611.10 C 601.96 607.92 603.92 605.28 605.18 602.32 C 605.88 600.70 606.61 598.97 608.25 598.08 C 608.83 596.48 609.21 594.78 610.20 593.37 C 611.50 591.18 611.88 587.98 614.61 587.04 C 614.47 586.29 614.19 584.81 614.05 584.07 L 615.33 584.86 C 615.19 583.19 615.55 581.67 617.25 581.07 C 618.12 577.62 620.23 574.72 621.56 571.46 C 622.16 570.11 622.92 568.82 624.22 568.04 C 625.44 563.94 627.92 560.41 629.60 556.51 C 630.60 554.56 631.23 552.22 633.25 551.05 C 635.37 544.94 638.95 539.44 641.60 533.54 C 642.59 531.60 643.20 529.18 645.27 528.07 C 645.73 526.44 646.24 524.80 647.17 523.37 C 648.46 521.22 648.92 518.32 651.30 517.04 C 651.20 515.24 651.47 513.50 653.52 513.03 C 653.46 512.43 653.34 511.23 653.28 510.64 C 653.82 509.11 655.01 508.03 656.26 507.06 C 657.41 503.86 658.42 500.19 661.23 498.04 C 662.44 493.93 664.93 490.40 666.61 486.50 C 667.64 484.58 668.20 482.13 670.29 481.04 C 670.26 479.36 670.42 477.67 672.26 477.06 C 674.09 472.83 675.28 467.37 679.62 465.02 C 679.47 464.28 679.18 462.82 679.03 462.09 L 680.41 462.86 C 679.83 460.15 680.83 456.78 684.72 458.49 C 684.11 458.12 682.89 457.38 682.28 457.01 C 683.46 454.43 684.61 451.49 687.28 450.12 C 687.95 447.48 688.83 444.60 691.24 443.04 C 692.02 440.12 693.64 437.57 694.95 434.89 C 696.27 432.56 696.81 429.53 699.26 428.06 C 700.83 422.97 703.93 418.52 706.03 413.65 C 707.37 411.42 707.85 408.46 710.26 407.06 C 711.84 403.27 713.00 398.68 716.29 396.04 C 716.25 394.35 716.42 392.71 718.24 392.05 C 719.14 388.63 721.22 385.72 722.56 382.48 C 723.11 381.08 723.94 379.78 725.33 379.07 C 725.44 377.02 726.26 374.98 728.26 374.11 C 728.97 370.91 730.94 368.24 732.20 365.26 C 732.92 363.68 733.60 361.87 735.31 361.09 C 735.60 359.80 735.97 358.53 736.57 357.35 C 738.78 354.43 739.13 350.23 742.25 348.04 C 743.13 344.60 745.25 341.71 746.57 338.46 C 747.13 337.08 747.95 335.81 749.26 335.05 C 749.93 332.31 751.42 329.92 752.68 327.44 C 754.19 324.98 754.61 321.66 757.26 320.04 C 758.29 316.17 760.70 312.88 762.25 309.22 C 763.99 306.55 764.44 302.90 767.25 301.03 C 768.79 295.89 772.14 291.55 773.93 286.51 C 774.47 285.18 774.79 283.63 776.32 283.06 C 776.50 280.98 777.26 278.70 779.53 278.10 C 779.49 277.49 779.41 276.27 779.37 275.67 C 781.20 273.24 781.58 269.78 784.24 268.03 C 785.05 264.92 786.89 262.25 788.18 259.32 C 788.88 257.69 789.64 255.97 791.26 255.05 C 791.95 252.43 792.88 249.63 795.22 248.03 C 796.02 245.55 797.57 243.26 797.49 240.57 C 798.08 239.19 798.75 237.69 800.30 237.16 C 800.73 234.36 802.47 232.10 803.59 229.57 C 804.56 227.59 805.23 225.28 807.22 224.03 C 807.90 221.67 809.05 219.51 810.21 217.35 C 811.40 215.17 811.98 212.43 814.23 211.03 C 815.14 207.62 817.22 204.74 818.56 201.50 C 819.12 200.12 819.94 198.83 821.24 198.03 C 821.94 195.35 823.40 193.01 824.61 190.55 C 825.56 188.57 826.23 186.26 828.23 185.04 C 829.29 181.19 831.71 177.94 833.16 174.25 C 833.97 172.71 834.61 170.95 836.23 170.05 C 837.25 166.42 839.44 163.30 840.87 159.84 C 841.28 158.64 842.21 157.74 843.25 157.06 C 844.03 153.82 846.00 151.11 847.34 148.11 C 848.42 145.97 849.08 143.37 851.25 142.03 C 852.61 137.18 855.90 133.19 857.41 128.40 C 858.41 128.05 859.42 127.73 860.46 127.44 C 860.41 125.22 861.02 123.00 863.28 122.16 C 864.32 116.77 869.01 112.69 869.38 107.18 L 870.24 107.67 C 870.20 106.06 870.66 104.68 872.26 104.09 C 873.02 100.92 874.93 98.25 876.18 95.29 C 876.96 93.67 877.60 91.69 879.50 91.04 C 879.47 90.45 879.42 89.27 879.40 88.68 C 880.63 86.79 881.09 84.08 883.37 83.12 C 883.34 80.99 884.30 79.01 886.31 78.12 C 886.77 75.26 888.62 72.95 889.57 70.27 C 934.37 70.59 979.19 70.32 1024.00 70.40 L 1024.00 72.54 L 1020.20 72.54 C 1021.06 73.06 1022.80 74.11 1023.66 74.64 L 1021.71 74.32 C 1021.49 77.36 1019.55 79.81 1018.44 82.55 C 1017.71 83.92 1017.06 85.47 1015.43 85.98 C 1015.54 86.74 1015.77 88.25 1015.88 89.00 L 1014.63 88.09 C 1014.02 91.63 1012.77 96.15 1009.38 97.93 C 1009.53 98.68 1009.81 100.17 1009.95 100.91 L 1008.71 100.16 C 1008.94 102.46 1007.66 104.01 1005.65 104.87 C 1005.74 106.59 1005.62 108.34 1003.71 108.97 C 1003.78 110.76 1003.46 112.45 1001.49 113.00 C 1001.52 113.58 1001.58 114.75 1001.61 115.33 C 999.85 117.78 999.35 121.11 996.87 122.99 C 996.54 124.32 996.00 125.61 994.49 125.97 C 994.55 126.58 994.66 127.79 994.72 128.40 C 993.89 129.68 993.25 131.24 991.73 131.86 C 990.88 135.59 988.47 138.66 987.08 142.18 C 986.18 143.91 985.56 145.99 983.69 146.93 C 982.97 149.37 982.91 153.90 978.89 152.54 C 981.73 153.13 980.13 155.02 979.52 156.46 C 978.28 158.33 977.85 160.84 975.71 161.97 C 975.74 163.66 975.55 165.33 973.70 165.92 C 973.18 168.86 971.11 171.21 970.47 174.11 C 969.37 174.26 967.17 174.55 966.08 174.69 L 969.37 176.06 C 968.37 176.68 967.38 177.29 966.39 177.90 C 966.52 178.65 966.80 180.17 966.94 180.93 L 965.67 180.13 C 965.13 183.73 963.61 187.61 960.76 189.96 C 960.30 192.28 958.39 194.23 958.62 196.67 C 957.64 197.53 956.57 198.24 955.46 198.89 C 955.50 199.50 955.58 200.71 955.62 201.32 C 953.71 203.76 953.51 207.55 950.50 208.99 C 950.55 209.58 950.65 210.75 950.71 211.33 C 950.04 212.76 949.13 214.11 947.75 214.92 C 946.43 218.06 945.74 222.39 942.35 223.93 C 942.67 226.03 943.04 228.14 943.65 230.18 C 944.53 230.79 945.44 231.38 946.36 231.96 L 943.07 233.31 C 944.17 233.44 946.38 233.72 947.49 233.86 C 948.17 235.94 949.03 237.98 949.77 240.05 C 952.57 242.21 953.66 245.90 954.73 249.13 C 958.29 251.13 959.35 255.50 960.74 259.06 C 961.83 259.73 962.61 260.66 963.13 261.83 C 968.27 272.65 973.89 283.26 979.08 294.05 C 979.82 296.67 981.59 299.00 981.59 301.84 L 982.72 301.04 C 981.99 303.99 985.01 305.95 984.65 308.88 L 985.64 308.00 C 985.83 309.99 986.24 311.94 986.65 313.90 L 987.64 312.99 C 987.86 314.97 988.22 316.93 988.60 318.90 L 989.63 317.99 C 989.86 319.97 990.25 321.93 990.63 323.89 L 991.92 323.04 C 991.77 323.99 991.46 325.90 991.30 326.86 L 992.63 325.99 C 992.86 327.97 993.25 329.93 993.61 331.91 L 994.92 331.03 C 994.76 331.99 994.44 333.91 994.28 334.87 L 995.54 333.95 C 995.56 337.32 997.81 340.21 997.68 343.63 L 998.89 343.27 C 998.75 344.17 998.47 345.96 998.33 346.86 L 999.96 346.07 C 999.79 347.02 999.44 348.91 999.27 349.86 L 1000.93 349.01 C 1000.75 349.96 1000.40 351.86 1000.22 352.82 L 1001.69 352.02 C 1001.37 355.22 1003.58 357.89 1003.82 361.02 C 1005.87 367.19 1007.25 373.57 1009.38 379.72 C 1009.55 381.11 1009.61 382.51 1009.58 383.93 L 1010.82 382.96 C 1010.66 384.60 1010.51 386.24 1010.36 387.88 L 1011.82 387.00 C 1011.66 388.63 1011.52 390.26 1011.39 391.90 L 1012.72 390.95 C 1012.69 392.31 1012.67 393.68 1012.67 395.05 C 1013.12 396.39 1013.55 397.73 1013.99 399.09 C 1014.66 401.31 1014.60 403.63 1014.56 405.93 L 1015.71 404.97 C 1015.68 406.66 1015.62 408.35 1015.69 410.06 C 1016.40 411.65 1016.62 413.38 1016.88 415.10 C 1017.42 416.99 1018.15 419.00 1017.47 420.97 C 1015.91 421.29 1012.78 421.93 1011.22 422.26 C 1013.11 422.28 1016.89 422.33 1018.78 422.36 C 1018.74 423.89 1018.58 425.41 1018.47 426.94 C 1016.93 427.27 1013.86 427.93 1012.32 428.26 C 1014.18 428.29 1017.88 428.33 1019.73 428.36 C 1019.67 430.22 1019.66 432.10 1019.48 433.96 C 1017.93 434.29 1014.84 434.94 1013.30 435.26 C 1015.15 435.29 1018.87 435.33 1020.73 435.36 C 1020.70 437.22 1020.64 439.10 1020.48 440.97 C 1018.92 441.29 1015.80 441.94 1014.25 442.26 C 1016.10 442.28 1019.82 442.33 1021.68 442.36 C 1021.64 444.88 1021.70 447.41 1021.50 449.93 C 1019.93 450.26 1016.79 450.92 1015.22 451.26 C 1017.08 451.28 1020.82 451.33 1022.68 451.36 C 1022.60 454.21 1022.71 457.08 1022.51 459.94 C 1021.05 460.27 1018.11 460.92 1016.65 461.25 C 1018.49 461.31 1022.16 461.43 1024.00 461.49 L 1024.00 473.31 L 1023.60 473.31 C 1023.70 473.41 1023.90 473.61 1024.00 473.71 L 1024.00 540.34 C 1024.00 540.43 1024.00 540.60 1024.00 540.69 L 1024.00 552.51 C 1022.14 552.57 1018.43 552.70 1016.57 552.76 C 1018.06 553.10 1021.03 553.77 1022.51 554.11 C 1022.72 556.94 1022.58 559.80 1022.70 562.65 C 1020.86 562.67 1017.18 562.71 1015.34 562.73 C 1016.88 563.05 1019.96 563.68 1021.50 564.00 C 1021.70 566.54 1021.62 569.10 1021.70 571.66 C 1019.83 571.67 1016.08 571.71 1014.21 571.73 C 1015.78 572.05 1018.91 572.68 1020.48 573.00 C 1020.62 574.87 1020.70 576.76 1020.73 578.65 C 1018.91 578.67 1015.25 578.71 1013.42 578.73 C 1014.93 579.05 1017.96 579.68 1019.47 579.99 C 1019.66 581.86 1019.66 583.76 1019.74 585.65 C 1017.90 585.67 1014.21 585.71 1012.36 585.73 C 1013.89 586.05 1016.94 586.68 1018.46 586.99 C 1018.58 588.53 1018.73 590.08 1018.78 591.64 C 1016.89 591.67 1013.13 591.72 1011.25 591.74 C 1012.80 592.06 1015.91 592.71 1017.46 593.04 C 1017.59 594.56 1017.76 596.10 1017.77 597.65 C 1015.94 597.67 1012.29 597.71 1010.46 597.74 C 1012.00 598.05 1015.09 598.68 1016.63 599.00 C 1016.85 600.72 1016.47 602.42 1015.66 603.94 C 1015.65 605.57 1015.66 607.22 1015.73 608.86 L 1014.55 608.28 C 1014.86 611.60 1013.80 614.79 1013.56 618.07 L 1012.59 617.07 C 1012.81 620.44 1011.92 623.72 1011.51 627.05 L 1010.35 626.11 C 1010.49 627.75 1010.65 629.39 1010.82 631.04 L 1009.36 630.10 C 1009.50 631.74 1009.66 633.39 1009.83 635.04 L 1008.65 634.06 C 1008.59 637.09 1007.88 640.05 1007.51 643.05 L 1006.59 642.07 C 1006.23 646.03 1004.77 649.74 1003.69 653.53 C 1003.44 656.47 1001.28 658.97 1001.69 662.03 L 1000.30 661.14 C 1000.45 662.09 1000.76 664.01 1000.91 664.97 L 999.31 664.14 C 999.46 665.07 999.76 666.92 999.91 667.85 L 998.27 667.25 C 998.43 668.19 998.74 670.05 998.90 670.99 L 997.28 670.15 C 997.44 671.10 997.77 673.01 997.93 673.97 L 996.28 673.13 C 996.45 674.09 996.78 676.02 996.94 676.98 L 995.64 676.07 C 996.09 681.52 991.53 685.68 991.66 691.03 L 990.65 690.11 C 990.24 692.05 989.81 694.01 989.65 696.00 L 988.58 695.11 C 988.23 697.07 987.88 699.04 987.62 701.02 L 986.64 700.09 C 986.24 702.01 985.88 703.95 985.62 705.91 L 984.62 705.20 C 984.86 708.07 982.11 710.06 982.70 712.96 L 981.67 712.16 C 981.80 714.94 979.42 716.94 979.58 719.72 L 978.80 719.49 C 975.81 728.08 970.81 735.85 967.06 744.13 C 964.77 747.61 964.11 752.33 960.72 754.95 C 959.57 758.13 958.62 761.96 955.65 763.93 C 955.59 766.00 954.72 768.06 952.68 768.87 C 952.37 771.43 951.25 773.82 948.71 774.83 C 949.15 777.34 946.45 778.23 944.33 777.83 L 947.36 779.02 C 946.43 779.60 945.51 780.21 944.61 780.84 C 944.69 782.96 943.67 784.89 941.79 785.93 C 942.00 788.39 939.24 789.46 937.09 788.72 L 940.33 790.01 C 939.45 790.61 938.59 791.22 937.74 791.85 C 938.05 794.31 935.34 795.58 933.13 794.63 L 936.32 796.01 C 935.46 796.61 934.61 797.23 933.77 797.85 C 933.70 799.78 932.28 800.94 930.79 801.94 C 930.69 803.29 929.95 804.30 928.78 804.98 C 928.74 806.88 927.20 807.96 925.79 808.92 C 925.65 810.24 925.03 811.33 923.84 811.98 C 923.24 814.13 921.91 816.08 919.67 816.71 C 919.88 818.72 918.37 820.03 916.73 820.86 C 916.72 822.76 915.42 824.10 913.77 824.83 C 913.42 827.69 910.92 829.30 908.79 830.87 C 908.42 833.16 906.84 834.88 904.75 835.77 C 903.69 840.85 897.83 844.01 892.83 842.87 L 898.39 843.77 C 898.97 844.08 900.13 844.70 900.71 845.00 C 900.02 844.85 898.64 844.55 897.96 844.39 C 895.14 848.85 890.89 853.48 884.84 851.89 L 890.43 852.77 L 892.79 854.07 C 892.06 853.90 890.59 853.54 889.86 853.37 C 888.39 856.63 885.20 858.53 882.93 861.17 C 878.15 865.66 873.92 870.76 868.80 874.87 C 868.17 878.08 865.05 879.72 863.06 882.03 C 861.16 883.82 859.62 886.40 856.81 886.76 C 854.31 889.76 851.76 893.67 847.85 894.75 C 846.31 896.97 844.37 898.86 842.42 900.72 C 841.78 900.65 840.51 900.50 839.88 900.43 C 839.31 902.29 837.81 903.61 835.86 903.79 C 834.34 905.95 832.68 908.27 829.91 908.83 C 828.98 910.36 827.72 911.68 825.83 911.77 C 825.09 913.44 823.74 914.71 821.83 914.73 C 820.76 916.43 819.43 917.93 817.83 919.14 L 816.75 916.11 C 816.86 918.09 816.30 919.85 815.09 921.39 L 813.69 918.08 C 814.61 920.81 812.57 922.62 810.91 924.24 L 809.74 921.11 C 810.30 923.20 809.46 926.14 806.88 925.74 C 806.12 927.37 804.77 928.49 802.99 928.85 C 802.30 929.96 801.27 930.63 800.00 930.84 C 799.34 931.97 798.26 932.60 797.01 932.85 C 796.31 933.95 795.27 934.62 794.00 934.85 C 793.30 935.98 792.25 936.64 790.95 936.82 C 789.85 938.62 788.02 939.66 785.92 939.64 C 785.42 941.00 784.30 941.67 782.93 941.82 C 781.88 943.68 779.97 944.66 777.85 944.62 C 777.13 946.76 774.96 947.55 772.89 947.65 C 772.05 949.69 770.01 950.60 767.92 950.65 C 765.98 953.66 762.10 954.50 758.96 955.76 C 757.32 958.35 753.99 958.78 751.56 960.36 C 747.63 962.04 744.08 964.56 739.96 965.76 C 738.93 967.57 736.86 968.20 735.13 969.09 C 729.21 971.75 723.57 975.51 717.12 976.64 L 718.00 977.78 C 715.01 976.80 713.10 980.18 710.12 979.60 L 711.01 980.69 C 709.00 980.76 707.04 981.20 705.10 981.65 L 706.02 982.70 C 702.07 982.39 699.10 985.86 695.09 985.59 L 695.97 986.90 C 695.02 986.75 693.11 986.46 692.16 986.32 L 693.00 987.63 C 691.00 987.83 689.04 988.23 687.09 988.64 L 687.98 989.89 C 687.02 989.75 685.09 989.47 684.13 989.33 L 684.97 990.92 C 684.01 990.76 682.10 990.44 681.14 990.28 L 681.96 991.92 C 681.01 991.76 679.10 991.45 678.15 991.30 L 679.01 992.61 C 675.78 993.20 672.49 993.88 669.20 993.44 C 670.61 994.06 673.42 995.29 674.83 995.90 C 672.02 994.37 669.01 995.26 666.08 995.69 L 666.99 996.96 C 666.04 996.78 664.12 996.42 663.17 996.23 L 663.99 997.56 C 660.46 998.45 656.81 998.85 653.18 998.47 C 654.60 999.07 657.44 1000.29 658.86 1000.89 C 656.27 1000.14 653.58 999.52 650.96 999.07 C 652.15 999.78 654.54 1001.19 655.74 1001.90 C 653.59 1001.17 651.40 1000.56 649.18 1000.20 L 649.99 1001.64 C 647.37 1002.11 644.74 1002.54 642.08 1002.63 L 643.05 1003.58 C 640.58 1003.63 638.16 1004.20 635.82 1004.95 C 633.98 1005.53 632.03 1005.58 630.13 1005.65 L 631.05 1006.54 C 628.30 1006.80 625.59 1007.35 622.90 1007.92 C 621.02 1008.58 619.01 1008.54 617.06 1008.62 L 618.04 1009.84 C 616.41 1009.66 614.78 1009.49 613.17 1009.33 L 613.97 1010.71 C 612.29 1010.67 610.61 1010.64 608.95 1010.68 C 607.36 1011.40 605.61 1011.62 603.91 1011.91 C 601.96 1012.53 599.91 1012.61 597.91 1012.83 C 596.00 1013.56 593.95 1013.64 591.95 1013.80 C 589.71 1014.70 587.27 1014.64 584.92 1014.79 C 582.69 1015.70 580.26 1015.66 577.91 1015.77 C 575.08 1017.02 571.94 1016.52 568.95 1016.71 C 564.58 1018.57 559.67 1017.14 555.10 1017.56 C 555.98 1018.05 557.74 1019.01 558.62 1019.50 C 527.54 1019.66 496.44 1019.66 465.36 1019.50 C 466.26 1019.02 468.07 1018.05 468.97 1017.57 C 464.37 1017.11 459.44 1018.60 455.05 1016.71 C 452.05 1016.48 448.83 1017.13 446.06 1015.66 C 444.02 1015.63 441.99 1015.63 439.96 1015.72 L 440.93 1014.49 C 437.97 1014.59 434.90 1014.99 432.09 1013.84 C 430.04 1013.62 427.91 1013.62 426.03 1012.67 C 424.33 1012.65 422.65 1012.65 420.96 1012.72 L 421.92 1011.42 C 419.93 1011.56 417.94 1011.61 415.95 1011.79 L 416.94 1010.52 C 414.32 1010.63 411.65 1010.79 409.14 1009.94 C 407.80 1009.56 406.45 1009.26 405.12 1008.90 C 403.78 1008.54 402.43 1008.23 401.11 1007.87 C 399.35 1007.65 397.60 1007.39 395.98 1006.66 C 395.23 1006.68 393.73 1006.74 392.98 1006.77 L 393.89 1005.34 C 392.24 1005.50 390.59 1005.66 388.95 1005.82 L 389.91 1004.39 C 388.25 1004.52 386.60 1004.66 384.96 1004.81 L 385.93 1003.61 C 382.88 1003.67 379.94 1002.80 376.93 1002.55 L 377.94 1001.63 C 374.16 1001.77 370.76 999.73 367.02 999.67 L 367.86 998.54 C 363.94 999.45 360.76 996.47 356.97 996.68 L 357.85 995.26 C 356.90 995.43 355.00 995.78 354.05 995.96 L 354.87 994.28 C 353.95 994.45 352.12 994.79 351.20 994.96 L 351.74 993.65 C 348.24 994.07 345.43 991.24 341.97 991.75 L 342.90 990.67 C 340.58 990.41 338.28 989.99 335.99 989.62 L 336.89 988.65 C 334.93 988.25 332.97 987.87 331.00 987.61 L 331.84 986.32 C 330.89 986.46 328.99 986.75 328.04 986.90 L 328.90 985.57 C 324.91 985.85 321.91 982.45 317.99 982.66 L 318.87 981.66 C 314.42 981.43 310.80 978.61 306.68 977.31 C 304.07 976.48 301.92 974.20 298.99 974.68 L 299.88 973.73 C 295.56 973.22 292.14 970.33 288.22 968.74 C 286.09 967.54 283.39 966.99 282.05 964.77 C 277.42 963.34 273.43 960.51 268.98 958.68 C 267.45 958.02 265.92 957.25 265.05 955.76 C 261.90 954.49 258.04 953.65 256.06 950.67 C 254.00 950.53 251.88 949.74 251.15 947.63 C 249.02 947.61 246.92 946.74 246.15 944.63 C 244.71 944.30 243.25 944.08 241.87 943.61 C 241.72 942.50 241.41 940.26 241.26 939.14 L 239.96 942.36 C 239.37 941.43 238.78 940.51 238.18 939.61 C 236.02 939.72 234.12 938.66 233.07 936.79 C 230.61 937.00 229.48 934.21 230.26 932.06 L 228.99 935.34 C 228.38 934.45 227.76 933.58 227.13 932.73 C 225.34 932.85 224.11 931.72 224.37 929.82 C 221.93 932.41 220.53 928.18 221.43 926.23 C 221.27 932.16 216.11 926.28 217.43 923.91 C 216.72 928.20 215.05 924.77 214.01 923.80 C 211.20 923.55 209.48 920.97 210.31 918.12 L 208.99 921.32 C 208.40 920.45 207.78 919.61 207.14 918.79 C 204.81 918.43 203.11 916.78 202.21 914.68 C 200.30 914.76 198.80 913.49 198.21 911.75 C 196.26 911.70 194.99 910.41 194.13 908.80 C 191.40 908.24 189.53 906.07 188.21 903.78 C 186.14 903.70 184.84 902.22 184.05 900.45 C 183.42 900.52 182.17 900.64 181.55 900.70 C 179.61 898.86 177.73 896.94 176.12 894.81 C 172.17 893.58 169.74 889.73 167.11 886.75 C 164.02 886.37 162.53 883.27 160.35 881.44 C 158.29 878.92 154.85 877.29 154.20 873.84 C 147.84 868.63 142.57 862.20 136.46 856.68 C 135.51 855.69 134.77 854.53 134.06 853.39 C 133.37 853.54 131.99 853.84 131.30 853.99 C 133.15 853.46 136.86 852.39 138.72 851.86 C 132.87 853.31 128.79 848.69 126.04 844.39 C 125.35 844.55 123.98 844.85 123.30 845.00 C 125.22 844.47 129.05 843.40 130.97 842.86 C 125.94 844.02 120.47 840.74 119.22 835.82 C 117.27 834.71 115.37 833.26 115.26 830.84 C 113.01 829.36 110.55 827.65 110.25 824.73 C 108.29 824.36 107.44 822.62 107.26 820.81 C 105.54 820.12 104.26 818.76 104.28 816.84 C 102.38 815.72 100.42 814.30 100.22 811.93 C 99.00 811.32 98.31 810.25 98.20 808.92 C 97.04 807.91 95.83 806.97 94.74 805.91 L 97.91 804.83 C 95.72 805.31 92.98 804.45 93.23 801.92 C 92.02 800.98 90.88 799.94 89.76 798.92 L 92.88 797.80 C 90.89 797.87 89.13 797.30 87.61 796.09 L 90.90 794.74 C 88.64 795.50 85.96 794.33 86.25 791.85 C 85.39 791.23 84.53 790.62 83.67 790.02 L 86.93 788.73 C 84.91 788.88 83.14 788.33 81.61 787.08 L 84.92 785.67 C 83.79 785.54 81.53 785.28 80.41 785.15 C 79.86 783.77 79.76 782.30 79.34 780.90 C 78.02 780.40 77.34 779.32 77.15 778.00 C 75.95 777.33 75.35 776.19 75.21 774.88 C 72.88 773.68 71.54 771.47 71.31 768.89 C 69.32 768.00 68.38 766.00 68.35 763.91 C 65.38 761.94 64.33 758.09 63.32 754.86 C 61.26 754.03 60.33 751.94 60.39 749.82 C 59.48 749.21 58.56 748.62 57.64 748.05 L 60.92 746.68 C 59.82 746.54 57.63 746.27 56.53 746.14 C 55.78 744.08 55.00 742.04 54.22 739.99 C 51.93 738.96 52.55 736.27 51.96 734.27 C 50.13 729.08 45.97 724.70 45.42 719.11 L 44.39 719.99 C 44.55 717.07 42.75 714.72 41.56 712.23 C 41.09 709.76 39.27 707.71 39.36 705.10 L 38.39 706.01 C 38.10 704.03 37.75 702.06 37.40 700.10 L 36.31 701.01 C 36.23 699.03 35.79 697.08 35.36 695.17 L 34.37 695.95 C 34.12 693.98 33.74 692.03 33.37 690.09 L 32.30 691.03 C 32.80 687.81 30.14 685.28 30.48 682.09 L 29.10 682.95 C 29.24 682.00 29.54 680.10 29.69 679.15 L 28.37 680.01 C 28.04 677.69 27.58 675.40 27.30 673.10 L 26.28 674.04 C 26.68 670.51 23.87 667.64 24.36 664.06 L 23.07 665.00 C 23.23 664.04 23.56 662.11 23.73 661.15 L 22.11 661.96 C 22.25 661.05 22.53 659.24 22.67 658.33 L 21.40 658.82 C 20.77 653.06 17.94 647.84 17.42 642.06 L 16.19 643.04 C 16.34 641.39 16.49 639.75 16.65 638.11 L 15.18 639.02 C 15.33 637.38 15.49 635.75 15.65 634.12 L 14.22 635.00 C 14.25 634.26 14.32 632.76 14.35 632.01 C 13.90 630.65 13.42 629.30 13.01 627.93 C 12.48 626.02 12.41 624.03 12.38 622.07 L 11.27 623.04 C 11.30 621.67 11.32 620.32 11.33 618.97 C 10.85 617.64 10.47 616.27 10.03 614.94 C 9.32 612.71 9.37 610.36 9.45 608.07 L 8.29 609.04 C 8.33 607.33 8.34 605.63 8.32 603.94 C 7.59 602.35 7.36 600.61 7.14 598.92 C 6.45 597.02 6.02 594.98 6.48 592.98 C 8.02 592.67 11.09 592.05 12.63 591.73 C 10.78 591.71 7.07 591.67 5.22 591.64 C 5.25 590.10 5.40 588.58 5.53 587.06 C 7.09 586.73 10.20 586.07 11.76 585.74 C 9.89 585.72 6.15 585.67 4.27 585.64 C 4.28 583.79 4.35 581.93 4.51 580.10 C 6.08 579.76 9.22 579.08 10.79 578.75 C 8.91 578.72 5.15 578.67 3.27 578.64 C 3.31 576.76 3.35 574.89 3.51 573.03 C 5.06 572.71 8.16 572.06 9.71 571.74 C 7.86 571.71 4.16 571.67 2.31 571.65 C 2.37 569.09 2.29 566.52 2.51 563.98 C 4.06 563.67 7.14 563.05 8.69 562.74 C 6.85 562.71 3.16 562.67 1.32 562.65 C 1.39 559.80 1.28 556.94 1.49 554.11 C 2.97 553.77 5.94 553.09 7.42 552.76 C 5.57 552.70 1.86 552.58 0.00 552.52 L 0.00 540.65 C 0.00 540.56 0.00 540.39 0.00 540.30 L 0.00 473.68 L 0.39 473.67 C 0.29 473.58 0.10 473.39 0.00 473.30 L 0.00 461.49 C 1.88 461.43 5.64 461.30 7.52 461.23 C 6.02 460.91 3.01 460.25 1.51 459.93 C 1.21 457.07 1.45 454.20 1.31 451.35 C 3.14 451.33 6.81 451.29 8.65 451.26 C 7.11 450.93 4.03 450.27 2.49 449.94 C 2.29 447.41 2.38 444.88 2.30 442.35 C 4.15 442.33 7.85 442.28 9.70 442.26 C 8.15 441.93 5.06 441.28 3.51 440.95 C 3.34 439.08 3.31 437.22 3.27 435.36 C 5.14 435.33 8.89 435.28 10.77 435.26 C 9.20 434.92 6.07 434.26 4.51 433.92 C 4.34 432.07 4.31 430.20 4.26 428.35 C 6.11 428.33 9.80 428.28 11.65 428.26 C 10.13 427.96 7.09 427.36 5.57 427.05 C 5.34 425.36 5.26 423.65 5.19 421.96 L 6.57 422.93 C 6.39 420.60 6.40 418.27 6.23 415.95 L 7.57 416.92 C 7.44 414.93 7.36 412.94 7.22 410.95 L 8.48 411.94 C 8.35 409.31 8.14 406.60 9.13 404.10 C 9.52 401.04 10.20 398.02 11.20 395.11 C 11.33 393.40 11.68 391.74 12.06 390.09 C 12.44 388.76 12.76 387.44 13.12 386.12 C 13.44 384.79 13.73 383.47 14.14 382.17 C 16.67 372.15 20.01 362.37 22.43 352.35 L 23.28 352.35 C 23.17 349.04 25.62 346.29 25.32 342.98 L 26.73 343.85 C 26.56 342.89 26.22 340.98 26.05 340.02 L 27.33 340.92 C 27.54 338.64 27.97 336.39 28.39 334.14 L 29.68 334.70 C 29.54 333.78 29.26 331.96 29.12 331.05 L 30.47 331.89 C 30.15 328.72 32.83 326.17 32.26 322.98 L 33.35 323.88 C 33.73 321.93 34.12 319.98 34.38 318.01 L 35.41 318.89 C 35.81 316.94 36.20 314.98 36.32 312.99 L 37.35 313.88 C 37.73 311.92 38.12 309.97 38.38 307.99 L 39.40 308.91 C 38.98 305.99 41.99 304.00 41.30 301.05 L 42.36 301.84 C 42.02 298.91 45.00 296.93 44.31 293.97 L 45.38 294.90 C 45.41 293.68 45.65 292.52 46.12 291.41 C 51.23 281.39 56.26 271.32 61.21 261.23 C 61.68 260.32 62.35 259.59 63.23 259.04 C 64.60 255.46 65.79 251.24 69.22 249.09 C 69.29 247.66 69.97 246.58 71.37 246.12 C 71.36 243.99 72.31 241.98 74.33 241.11 C 74.32 238.12 76.37 235.18 79.92 236.26 L 76.64 234.96 C 77.56 234.38 78.47 233.79 79.36 233.18 C 79.71 231.74 79.86 230.25 80.39 228.86 C 81.51 228.73 83.76 228.47 84.88 228.33 L 81.61 226.91 C 83.14 225.66 84.91 225.11 86.93 225.26 L 83.61 223.92 C 85.13 222.67 86.90 222.12 88.91 222.26 L 85.61 220.91 C 87.14 219.67 88.91 219.12 90.92 219.27 L 87.61 217.92 C 89.01 216.75 90.62 216.24 92.46 216.38 C 87.76 215.86 91.67 213.02 93.24 212.11 C 92.95 209.63 95.65 208.51 97.88 209.28 L 94.77 208.09 C 95.82 206.99 97.01 206.03 98.21 205.10 C 98.32 203.74 98.94 202.69 100.16 202.03 C 100.70 199.82 102.18 198.07 104.30 197.22 C 104.18 195.26 105.64 193.98 107.21 193.13 C 107.32 191.23 108.71 190.06 110.17 189.06 C 110.81 186.38 112.95 184.52 115.24 183.21 C 115.41 180.81 117.22 179.24 119.20 178.18 C 120.51 173.41 125.65 169.92 130.72 171.08 C 128.86 170.56 125.13 169.52 123.27 168.99 C 123.98 169.16 125.39 169.48 126.10 169.64 C 127.53 166.88 129.75 164.57 132.52 163.16 C 132.49 162.23 132.45 160.39 132.42 159.46 C 132.97 160.27 134.05 161.90 134.59 162.71 C 133.19 159.01 136.92 157.30 138.84 155.04 C 143.40 150.88 147.27 145.91 152.22 142.19 C 152.52 140.98 152.90 139.77 153.88 138.93 C 157.09 135.80 160.32 132.69 163.38 129.42 C 164.35 128.29 165.65 127.55 167.08 127.18 C 168.39 125.41 169.73 123.41 172.14 123.22 C 172.88 121.54 174.33 120.43 176.16 120.19 C 178.04 117.78 179.93 114.79 183.19 114.22 C 184.19 112.14 185.84 110.60 188.16 110.19 C 189.62 108.02 191.34 105.76 194.07 105.18 C 195.07 103.67 196.25 102.23 198.25 102.25 C 198.71 100.35 200.32 99.41 202.18 99.27 C 203.19 97.63 205.74 93.32 207.43 96.77 C 207.41 95.20 207.92 93.81 208.94 92.62 L 210.25 95.74 C 209.46 93.05 211.50 91.35 213.10 89.75 L 214.17 92.94 C 213.62 90.72 214.59 87.86 217.16 88.27 C 217.86 86.63 219.16 85.32 221.03 85.22 C 221.66 83.97 222.75 83.30 224.14 83.23 C 224.75 82.38 225.37 81.53 225.98 80.67 L 227.30 83.87 C 227.12 81.87 227.66 80.12 228.92 78.62 L 230.28 81.89 C 229.44 79.63 230.67 77.01 233.11 77.24 C 233.97 75.27 236.07 74.44 238.09 74.35 C 238.58 72.99 239.69 72.32 241.07 72.19 C 242.09 70.31 244.02 69.34 246.13 69.37 C 246.93 67.28 248.99 66.37 251.12 66.36 C 251.97 64.31 253.95 63.37 256.09 63.36 C 258.00 60.32 261.91 59.52 265.03 58.23 C 266.00 56.70 267.65 55.90 269.25 55.17 C 274.29 53.10 278.84 49.91 284.05 48.25 C 285.07 46.43 287.13 45.77 288.89 44.88 C 292.61 43.52 295.78 40.53 299.90 40.34 L 298.96 39.31 C 301.95 40.01 303.92 36.99 306.88 37.39 L 305.99 36.23 C 308.98 37.19 310.90 33.81 313.90 34.42 L 312.99 33.37 C 314.96 33.13 316.92 32.75 318.88 32.42 L 318.00 31.35 C 319.98 31.16 321.93 30.78 323.88 30.42 L 323.00 29.37 C 324.97 29.12 326.92 28.79 328.88 28.45 L 328.05 27.08 C 329.00 27.24 330.90 27.56 331.85 27.72 L 331.00 26.37 C 332.98 26.13 334.93 25.75 336.90 25.42 L 335.97 24.33 C 340.53 24.50 344.29 21.01 348.92 21.33 L 348.02 20.05 C 348.98 20.22 350.91 20.56 351.87 20.72 L 351.00 19.13 C 351.94 19.27 353.81 19.55 354.75 19.68 L 354.09 18.32 C 358.91 18.34 362.94 14.61 367.92 15.38 L 366.96 14.35 C 371.57 14.22 375.66 11.84 380.17 11.22 C 382.75 10.23 385.48 9.73 388.19 9.20 C 390.76 8.19 393.52 7.84 396.16 7.07 C 398.30 6.28 400.60 6.41 402.85 6.38 C 402.62 5.89 402.15 4.91 401.92 4.42 M 144.62 371.33 C 144.66 373.56 142.95 375.45 144.00 377.74 L 142.36 374.49 C 142.47 375.89 142.69 378.67 142.80 380.06 L 141.38 379.12 C 141.49 380.10 141.72 382.05 141.84 383.03 L 140.51 382.08 C 140.67 384.54 139.11 386.72 139.50 389.21 L 135.82 386.37 L 138.74 389.92 L 139.28 391.69 L 137.48 388.71 C 138.62 392.24 135.64 395.24 136.98 398.73 L 135.43 395.44 C 135.47 396.71 135.55 399.24 135.59 400.50 C 134.50 401.44 134.27 402.61 134.88 404.04 L 133.46 403.09 C 133.58 404.61 133.63 406.15 133.60 407.69 C 132.27 408.56 129.59 410.28 128.25 411.15 L 133.59 408.94 C 133.30 410.69 134.44 413.24 132.74 414.45 C 130.96 414.55 127.42 414.75 125.64 414.85 C 129.26 413.85 131.96 415.49 131.93 418.66 C 130.47 418.67 127.54 418.70 126.08 418.72 C 127.19 419.04 129.40 419.69 130.51 420.01 C 130.60 421.37 130.66 422.74 130.67 424.11 C 130.15 423.86 129.10 423.36 128.57 423.11 L 128.51 427.22 L 130.08 424.24 C 129.97 425.13 129.73 426.92 129.62 427.81 C 127.91 427.82 124.51 427.83 122.80 427.84 C 127.77 426.02 128.89 429.50 128.85 432.67 C 127.51 432.68 124.85 432.68 123.51 432.68 C 127.97 432.27 127.76 435.73 127.78 438.68 C 126.32 438.69 123.42 438.71 121.97 438.73 C 123.11 439.05 125.40 439.70 126.55 440.03 C 126.63 441.49 126.63 442.96 126.53 444.44 C 126.06 443.59 125.12 441.89 124.65 441.04 L 124.44 447.42 L 126.00 444.19 C 125.75 446.00 125.66 447.85 125.67 449.70 C 124.40 449.69 121.85 449.67 120.58 449.66 C 121.56 450.02 123.53 450.72 124.51 451.07 C 124.68 453.61 124.59 456.15 124.73 458.69 C 123.43 458.69 120.83 458.68 119.53 458.68 C 120.53 459.03 122.53 459.72 123.53 460.07 C 123.73 463.61 123.37 467.18 123.98 470.71 L 122.47 467.45 C 122.62 489.14 122.71 510.84 122.44 532.53 L 124.00 529.26 C 123.54 532.30 123.60 535.39 123.55 538.47 C 123.09 537.32 122.18 535.01 121.72 533.86 L 121.42 538.90 L 122.80 537.94 C 122.51 540.94 122.67 543.96 122.54 546.97 C 121.44 547.30 119.26 547.96 118.17 548.29 C 119.57 548.30 122.35 548.31 123.74 548.32 C 123.67 550.19 123.67 552.08 123.48 553.96 C 122.45 554.30 120.37 554.97 119.33 555.31 C 120.68 555.31 123.38 555.31 124.73 555.32 C 124.49 558.14 124.57 560.98 125.02 563.79 L 123.50 560.57 L 123.59 565.26 C 124.06 564.88 125.02 564.13 125.50 563.76 C 125.62 565.77 125.78 567.78 126.03 569.80 L 124.50 566.57 L 124.58 570.89 C 125.07 570.64 126.06 570.15 126.55 569.90 C 126.62 571.31 126.71 572.71 126.80 574.13 L 125.52 573.05 L 125.53 575.88 C 126.06 575.63 127.11 575.14 127.64 574.89 C 127.63 576.58 127.66 578.28 127.52 579.98 C 126.39 580.31 124.12 580.95 122.99 581.28 C 124.45 581.29 127.37 581.32 128.84 581.33 C 128.93 584.37 128.01 586.83 123.89 586.27 C 125.39 586.28 128.40 586.32 129.91 586.33 C 129.99 589.19 128.00 590.27 124.98 590.28 C 126.45 590.29 129.37 590.32 130.84 590.33 C 130.92 593.32 130.05 595.82 125.97 595.27 C 127.45 595.29 130.43 595.32 131.91 595.34 C 131.99 598.26 129.92 599.30 126.85 599.26 C 128.36 599.28 131.39 599.31 132.91 599.33 C 132.97 602.51 130.46 603.81 126.90 603.18 C 128.78 603.27 132.54 603.45 134.42 603.54 C 133.02 605.47 131.02 606.35 128.43 606.18 L 133.79 606.48 C 133.65 607.94 133.51 609.41 133.38 610.88 L 134.88 609.98 C 134.19 613.22 136.89 616.09 135.46 619.53 L 136.99 616.24 C 135.59 620.56 140.19 623.97 138.49 628.48 L 140.03 625.26 C 139.74 627.71 139.51 630.18 139.34 632.66 L 141.00 629.23 C 140.94 631.09 140.84 634.83 140.79 636.69 L 141.83 632.67 C 142.67 635.24 143.12 637.97 144.33 640.42 C 145.88 642.48 145.73 645.06 145.43 647.52 L 147.04 644.24 C 145.81 646.67 148.05 648.86 147.55 651.32 L 149.16 649.97 C 148.91 650.67 148.40 652.08 148.15 652.78 L 149.72 652.03 C 148.80 654.90 151.90 656.72 151.66 659.55 L 152.94 659.31 C 152.82 659.83 152.58 660.85 152.46 661.36 C 153.15 662.36 153.80 663.38 154.42 664.44 C 155.05 665.79 155.68 667.19 155.61 668.75 L 157.49 668.34 C 156.64 669.01 154.94 670.35 154.09 671.02 L 157.60 670.05 C 157.64 671.61 157.71 674.75 157.74 676.31 L 158.88 672.70 C 159.28 674.31 159.62 675.94 160.26 677.50 C 160.53 677.99 161.08 678.97 161.35 679.46 C 162.11 680.80 162.78 682.24 162.50 683.86 L 164.46 683.10 C 163.54 684.23 161.69 686.48 160.76 687.61 L 164.12 685.10 C 166.39 686.95 166.72 690.17 168.35 692.52 C 169.09 694.25 171.95 696.76 166.97 696.77 C 170.04 694.36 171.52 697.40 172.38 699.46 C 173.48 701.59 175.36 704.13 170.84 705.50 C 173.14 702.53 174.82 702.48 175.88 705.36 C 177.30 707.21 176.73 708.78 174.19 710.08 C 176.06 707.84 177.73 707.84 179.21 710.06 L 176.02 711.99 C 178.87 708.41 184.27 715.02 178.16 716.00 C 180.08 711.75 183.74 715.22 182.48 717.74 L 184.40 717.25 C 183.49 718.33 181.68 720.49 180.78 721.57 C 182.90 714.77 191.17 724.22 183.82 725.51 C 187.35 719.10 189.92 726.41 188.76 729.13 L 189.75 725.90 C 190.06 726.47 190.68 727.63 190.98 728.21 L 187.88 729.69 C 191.29 726.96 197.52 733.72 190.91 735.43 C 192.85 729.14 200.79 737.69 194.18 739.08 C 196.04 736.85 197.72 736.84 199.22 739.05 L 195.99 740.53 C 199.44 738.81 201.15 742.26 203.14 744.11 L 199.98 745.55 C 203.38 743.55 210.43 750.00 204.10 752.16 C 207.35 747.43 209.74 753.29 212.13 755.13 L 208.99 756.68 C 212.13 754.64 213.70 757.87 215.59 759.44 C 216.86 760.94 219.28 762.17 218.49 764.51 C 218.96 764.49 219.90 764.45 220.37 764.43 C 224.14 767.79 227.57 771.54 231.14 775.11 L 227.90 776.59 L 231.27 776.36 C 235.74 780.31 239.71 784.83 244.07 788.93 C 245.59 790.59 248.23 792.13 246.30 795.00 L 247.88 791.86 C 249.80 793.68 251.66 795.55 253.56 797.40 C 254.94 798.96 257.17 800.32 255.41 803.02 L 256.89 799.86 C 258.92 802.28 263.17 804.04 261.43 808.02 L 262.89 804.87 C 264.70 806.99 269.84 809.38 264.47 812.19 C 265.72 804.85 275.15 812.98 268.48 815.18 C 269.55 807.92 278.95 815.72 272.68 818.02 C 274.45 811.53 280.88 817.76 278.42 821.12 L 279.88 817.85 C 281.54 819.73 285.80 821.77 280.42 824.25 C 281.22 816.91 290.61 824.13 283.38 826.30 C 284.13 819.11 293.53 825.82 286.47 828.20 C 287.96 825.41 289.84 824.71 292.11 826.11 L 288.88 827.32 C 291.72 825.98 298.94 828.77 292.38 832.26 C 293.38 825.20 302.56 831.88 295.35 834.29 C 296.45 833.37 298.65 831.52 299.75 830.59 L 299.27 832.54 C 302.06 831.11 305.45 835.53 300.53 837.16 C 301.64 830.70 308.36 835.64 305.24 839.00 L 306.85 836.00 C 307.15 836.30 307.75 836.90 308.05 837.20 C 310.51 837.11 313.16 840.54 308.57 842.09 C 309.62 835.76 320.56 842.25 313.49 845.19 C 315.93 839.27 319.51 844.45 322.76 845.29 C 325.39 846.10 325.43 847.62 322.89 849.86 C 323.82 849.07 325.69 847.48 326.63 846.68 L 326.36 848.38 C 328.73 848.14 330.41 850.00 332.54 850.58 C 336.45 852.75 340.49 854.74 344.55 856.61 C 345.62 857.18 346.66 857.83 347.67 858.55 C 348.23 858.43 349.36 858.19 349.92 858.07 L 349.18 859.51 C 352.30 859.23 355.01 861.06 357.67 862.43 L 359.00 861.95 L 358.12 863.74 C 359.03 863.51 360.85 863.03 361.76 862.79 L 358.67 864.66 C 360.02 864.55 362.71 864.32 364.06 864.20 L 363.08 865.51 C 365.19 865.05 366.89 866.97 369.02 866.17 L 368.10 867.46 C 371.15 866.86 373.17 870.08 376.21 869.55 L 373.16 873.39 L 376.87 870.32 L 378.72 869.68 L 375.80 871.54 C 377.98 871.72 380.57 870.70 382.55 872.14 C 384.04 873.45 385.90 873.66 387.76 872.96 L 384.47 874.64 C 386.64 874.48 388.82 874.34 391.01 874.23 L 390.14 875.49 C 391.98 875.32 393.67 876.14 395.40 876.65 C 396.94 878.08 398.98 876.98 400.76 876.97 L 397.43 878.55 C 399.68 878.93 402.85 877.32 404.67 879.46 C 405.44 879.31 406.97 879.01 407.73 878.86 L 404.48 880.55 C 406.84 880.67 409.64 879.66 411.73 881.27 C 413.54 881.29 415.22 881.85 416.79 882.75 C 416.19 880.00 411.51 876.96 416.82 874.91 C 414.33 879.51 412.56 875.55 411.58 873.58 C 411.17 872.12 410.49 870.74 409.57 869.57 C 408.92 868.19 408.29 866.77 408.44 865.22 L 406.61 865.78 C 407.40 864.82 409.00 862.90 409.79 861.94 C 407.32 866.48 405.50 862.56 404.60 860.54 C 403.90 857.56 399.30 854.45 405.35 852.29 C 403.83 857.69 398.23 853.45 399.60 850.42 C 399.05 850.39 397.95 850.33 397.40 850.30 C 399.20 849.96 402.79 849.27 404.59 848.92 C 400.50 849.84 397.51 849.12 396.64 845.52 C 395.87 844.13 394.95 842.70 395.88 841.11 L 393.50 841.93 C 394.43 840.80 396.29 838.54 397.22 837.41 C 392.42 844.52 391.61 834.94 392.15 832.31 L 391.33 836.20 C 389.74 834.27 389.26 831.82 388.33 829.58 C 387.45 827.68 383.68 824.22 389.15 824.28 C 387.19 824.78 385.34 824.60 383.58 823.73 L 390.45 823.07 C 388.91 822.73 385.82 822.07 384.28 821.74 L 384.40 820.67 L 387.46 817.19 C 384.98 823.00 382.64 818.93 381.60 816.58 C 381.18 815.12 380.44 813.80 379.66 812.54 C 379.42 812.03 378.94 811.02 378.70 810.52 C 377.67 808.51 376.82 806.43 375.60 804.55 C 374.98 802.82 374.18 801.12 372.91 799.78 L 376.17 798.40 C 373.47 800.12 370.15 797.95 371.62 795.13 L 370.36 796.05 C 370.33 794.46 370.29 791.29 370.27 789.70 L 369.21 793.29 C 368.78 791.98 368.35 790.68 367.61 789.53 C 367.14 788.10 366.44 786.78 365.63 785.54 C 365.40 785.03 364.94 784.00 364.72 783.49 C 364.45 783.00 363.90 782.02 363.63 781.53 C 363.12 780.12 362.46 778.78 361.63 777.55 C 361.39 777.03 360.92 776.01 360.68 775.50 C 359.32 773.55 357.84 770.47 362.27 769.40 C 360.70 773.89 357.79 771.82 357.10 769.55 C 356.37 767.82 355.14 766.20 355.45 764.22 L 353.58 764.80 C 354.53 763.67 356.42 761.41 357.36 760.28 C 352.84 767.04 352.98 759.95 350.99 757.73 L 354.07 756.35 C 350.97 758.45 349.46 755.69 348.65 753.55 C 348.40 753.04 347.89 752.02 347.64 751.51 C 347.10 750.11 346.45 748.77 345.62 747.54 C 345.37 747.03 344.88 746.02 344.63 745.52 C 343.87 744.20 343.29 742.76 343.44 741.23 L 341.59 741.79 C 342.52 740.68 344.38 738.45 345.31 737.33 C 340.59 744.54 339.52 735.21 340.18 732.49 L 339.22 736.31 C 338.77 735.01 338.44 733.66 337.61 732.56 C 336.93 731.18 336.14 729.74 336.54 728.15 L 334.90 729.00 L 335.52 727.67 C 334.82 726.64 334.13 725.62 333.62 724.49 C 333.39 724.00 332.94 723.00 332.71 722.50 C 332.44 722.00 331.90 721.02 331.63 720.53 C 331.01 718.36 328.92 716.67 329.49 714.24 L 327.59 714.78 C 328.53 713.65 330.42 711.41 331.36 710.29 L 327.88 712.89 C 326.01 710.90 324.22 707.98 324.59 705.15 L 323.37 706.05 C 323.35 704.46 323.29 701.30 323.27 699.72 L 322.20 703.29 C 321.81 701.97 321.35 700.69 320.63 699.54 C 320.18 698.08 319.35 696.82 318.65 695.50 C 318.39 695.00 317.88 694.01 317.62 693.51 C 317.15 692.08 316.37 690.80 315.62 689.52 C 314.41 687.51 312.77 684.50 317.25 683.41 L 313.90 685.85 C 311.02 684.97 313.09 681.47 312.58 679.54 L 310.84 682.75 C 311.04 681.86 311.45 680.09 311.65 679.20 L 309.51 679.66 C 310.40 679.05 312.19 677.84 313.08 677.23 C 309.92 679.59 308.50 676.65 307.59 674.53 C 306.81 673.05 306.12 671.49 306.52 669.76 L 304.47 671.04 C 305.43 669.87 307.33 667.52 308.28 666.35 C 304.68 673.94 299.63 661.94 304.87 660.82 C 301.07 667.26 296.73 655.39 302.06 654.62 C 299.07 660.20 295.86 654.07 296.50 651.15 L 294.81 651.90 C 295.09 651.26 295.64 649.97 295.92 649.33 L 293.60 649.76 C 294.53 648.65 296.38 646.44 297.31 645.33 C 292.64 652.50 291.51 643.32 292.19 640.57 L 291.22 644.30 C 290.77 642.99 290.34 641.69 289.66 640.49 C 289.41 640.00 288.89 639.02 288.63 638.52 C 287.80 637.05 287.10 635.46 287.51 633.73 L 285.51 635.05 C 286.36 633.97 288.05 631.82 288.90 630.75 C 284.32 637.00 283.68 628.04 284.19 625.60 L 283.19 629.31 C 282.62 627.27 281.75 625.32 280.62 623.54 C 280.28 621.04 275.32 617.66 281.09 617.07 C 275.32 620.41 275.02 611.84 275.19 608.69 L 274.08 612.33 C 273.79 611.10 273.52 609.89 273.29 608.67 L 272.02 608.49 C 272.21 607.91 272.60 606.76 272.79 606.18 L 271.18 606.97 C 272.63 604.01 266.91 601.21 273.29 599.47 C 270.69 605.35 264.63 598.48 268.65 595.99 L 265.83 597.05 L 266.52 595.66 C 264.37 593.89 265.95 590.51 265.18 588.35 L 264.10 592.34 C 263.70 590.98 263.46 589.61 263.36 588.21 C 262.68 588.47 261.31 589.00 260.63 589.26 C 261.96 587.86 264.62 585.06 265.95 583.66 L 261.50 587.33 C 261.67 584.71 258.84 582.95 259.49 580.27 L 257.59 580.75 C 258.54 579.63 260.44 577.38 261.40 576.26 C 259.95 581.65 255.04 578.17 256.53 575.24 L 254.58 575.77 C 255.50 574.69 257.34 572.52 258.25 571.44 C 256.71 573.67 254.98 574.14 253.05 572.86 C 254.21 571.66 256.54 569.26 257.70 568.06 L 253.16 571.28 L 253.65 569.52 L 256.48 566.20 C 254.92 571.55 250.13 568.27 251.46 565.23 L 249.55 565.62 C 250.43 565.03 252.18 563.86 253.06 563.27 C 250.40 565.16 247.19 562.94 248.60 560.16 L 247.37 561.05 C 247.35 559.48 247.31 556.34 247.29 554.77 L 246.19 558.27 C 245.79 556.96 245.31 555.68 244.68 554.48 C 244.43 553.99 243.93 553.00 243.69 552.51 C 243.43 552.01 242.92 551.00 242.67 550.50 C 242.41 550.00 241.89 549.01 241.63 548.52 C 240.76 547.01 240.09 545.37 240.53 543.58 L 238.48 545.04 C 239.45 543.85 241.40 541.45 242.37 540.26 C 239.98 543.50 238.27 543.65 237.23 540.70 C 236.85 539.56 236.20 538.55 235.59 537.55 C 235.19 536.08 234.39 534.79 233.59 533.52 C 232.56 531.41 230.51 528.48 235.28 527.37 C 233.55 532.32 230.80 529.61 230.03 527.42 C 229.02 525.06 227.85 522.76 226.65 520.50 C 225.95 518.80 222.97 516.14 228.04 516.26 C 224.94 518.54 223.49 515.65 222.63 513.54 C 222.39 513.03 221.90 512.00 221.65 511.49 C 220.31 509.57 218.98 506.73 223.11 505.56 C 220.66 510.78 218.52 506.74 217.61 504.53 C 216.74 502.47 215.79 500.43 214.59 498.56 C 213.93 495.59 209.32 492.50 215.28 490.37 C 212.90 495.88 210.51 491.86 209.65 489.55 C 209.40 489.05 208.89 488.04 208.64 487.54 C 208.16 486.09 207.40 484.78 206.57 483.53 C 205.63 481.37 204.81 479.01 203.23 477.24 C 203.35 476.75 203.59 475.78 203.71 475.29 L 201.61 475.75 C 202.52 474.65 204.36 472.47 205.28 471.38 C 202.89 474.50 201.21 474.60 200.24 471.66 C 199.84 470.54 199.20 469.54 198.57 468.56 C 198.09 466.35 195.94 464.70 196.46 462.25 L 194.60 462.76 C 195.53 461.66 197.38 459.45 198.31 458.35 C 194.41 464.71 193.28 457.92 191.60 455.52 C 190.95 453.37 188.98 451.65 189.46 449.21 L 187.58 449.81 C 188.48 448.72 190.30 446.54 191.21 445.45 C 186.54 452.38 185.56 443.20 186.19 440.54 L 185.22 444.31 C 184.81 442.99 184.33 441.69 183.60 440.52 C 183.03 438.35 180.92 436.66 181.48 434.24 L 179.58 434.78 C 180.53 433.65 182.43 431.40 183.38 430.27 C 180.95 436.01 178.57 431.88 177.63 429.55 C 177.39 429.03 176.92 428.00 176.69 427.49 C 176.44 426.99 175.94 426.00 175.69 425.51 C 175.43 425.01 174.92 424.01 174.66 423.51 C 173.45 421.59 171.79 418.74 176.05 417.62 C 173.55 422.81 171.61 418.66 170.60 416.57 C 170.17 415.11 169.45 413.78 168.62 412.54 C 167.52 410.56 165.79 407.83 170.02 406.64 C 167.75 409.45 166.17 409.48 165.27 406.73 C 164.01 404.36 163.04 401.82 161.59 399.56 C 161.18 398.10 160.41 396.80 159.64 395.53 C 159.40 395.02 158.90 394.02 158.65 393.52 C 158.07 392.14 157.51 390.74 156.58 389.56 C 155.93 388.20 155.27 386.79 155.45 385.25 L 153.60 385.77 C 154.51 384.68 156.33 382.49 157.24 381.40 C 155.68 386.65 151.13 383.04 152.52 380.24 L 150.59 380.77 C 151.51 379.68 153.35 377.49 154.27 376.39 C 150.99 382.45 149.63 376.81 147.93 374.76 L 151.21 373.44 C 149.80 373.29 146.96 372.99 145.54 372.84 L 150.28 371.94 L 144.62 371.33 M 132.07 412.27 C 132.52 412.76 132.52 412.76 132.07 412.27 Z" />
</g>
</svg>
